<?xml version="1.0" standalone="no"?>
<!DOCTYPE svg PUBLIC "-//W3C//DTD SVG 20010904//EN"
 "http://www.w3.org/TR/2001/REC-SVG-20010904/DTD/svg10.dtd">
<svg version="1.0" xmlns="http://www.w3.org/2000/svg"
 width="488.000000pt" height="158.000000pt" viewBox="0 0 488.000000 158.000000"
 preserveAspectRatio="xMidYMid meet">

<g transform="translate(0.000000,158.000000) scale(0.100000,-0.100000)"
fill="#993a03" stroke="none">
<path d="M2157 1537 c-113 -35 -180 -166 -147 -287 10 -37 28 -61 102 -131 71
-69 89 -92 86 -110 -2 -16 -11 -25 -25 -27 -20 -3 -23 1 -23 32 l0 36 -89 0
-88 0 -7 -41 c-20 -122 78 -212 214 -196 99 12 168 68 195 159 31 105 14 147
-106 261 -91 87 -104 111 -74 141 24 23 45 9 45 -30 l0 -34 91 0 91 0 -4 70
c-4 82 -24 114 -88 148 -49 24 -112 28 -173 9z"/>
<path d="M3120 1541 c-76 -25 -118 -62 -149 -131 -24 -56 -68 -406 -57 -463
26 -139 228 -183 350 -76 59 52 74 96 97 278 32 260 23 322 -56 371 -39 24
-140 36 -185 21z m70 -166 c10 -12 9 -45 -4 -168 -21 -181 -30 -223 -53 -232
-23 -8 -45 22 -39 55 3 14 13 93 22 175 11 100 22 156 32 168 19 21 26 21 42
2z"/>
<path d="M286 1532 c-6 -10 -86 -654 -86 -693 0 -20 3 -21 148 -17 140 3 149
4 195 31 26 15 59 45 73 66 48 73 49 199 2 249 l-22 22 22 20 c41 38 56 81 57
157 0 132 -50 166 -251 171 -78 2 -134 0 -138 -6z m199 -169 c29 -29 3 -103
-36 -103 -16 0 -18 6 -13 48 9 79 17 88 49 55z m-17 -295 c2 -37 -1 -51 -17
-67 -12 -12 -28 -21 -37 -21 -14 0 -15 7 -10 38 3 20 6 52 6 70 0 30 2 33 28
30 25 -3 27 -7 30 -50z"/>
<path d="M760 1538 c-18 -106 -85 -705 -80 -711 4 -4 45 -7 91 -5 l84 3 17
128 c9 71 18 130 21 133 2 3 10 -46 16 -108 19 -173 8 -158 112 -158 105 0 98
-17 69 171 l-20 130 35 42 c103 120 77 319 -48 366 -23 9 -296 17 -297 9z
m201 -168 c14 -8 19 -21 19 -52 0 -46 -22 -78 -53 -78 -18 0 -19 5 -13 62 10
83 12 86 47 68z"/>
<path d="M1240 1538 c-12 -71 -86 -705 -83 -710 7 -14 173 -9 178 5 4 11 85
681 85 700 0 6 -179 11 -180 5z"/>
<path d="M1476 1532 c-6 -10 -86 -655 -86 -692 0 -19 6 -20 90 -20 62 0 90 4
90 12 0 16 50 411 53 423 2 5 14 -17 27 -48 13 -31 27 -57 32 -57 4 0 24 25
44 55 21 30 38 54 40 52 2 -2 -8 -92 -21 -202 -14 -109 -25 -207 -25 -217 0
-16 9 -18 90 -18 50 0 90 2 90 4 0 2 18 153 40 335 22 182 40 342 40 356 l0
26 -87 -3 -88 -3 -42 -70 c-24 -38 -46 -70 -49 -70 -4 0 -19 32 -34 70 l-28
70 -85 3 c-47 1 -88 -1 -91 -6z"/>
<path d="M2475 1488 c-3 -29 -8 -65 -11 -80 l-6 -28 66 0 c80 0 76 30 36 -295
-16 -132 -30 -246 -30 -252 0 -10 24 -13 90 -13 l89 0 5 33 c3 17 17 129 31
247 14 118 27 230 30 248 l6 32 64 0 c35 0 66 3 69 8 2 4 8 40 11 80 l8 72
-226 0 -225 0 -7 -52z"/>
<path d="M3455 1528 c-5 -13 -85 -670 -85 -694 0 -21 168 -20 176 0 3 8 14 81
23 163 11 90 20 138 24 123 6 -25 37 -265 37 -288 0 -9 29 -12 100 -12 95 0
100 1 105 23 4 19 85 676 85 691 0 6 -180 9 -180 4 -1 -2 -9 -74 -20 -162 -10
-87 -21 -160 -23 -162 -2 -2 -12 62 -21 143 -10 82 -20 156 -22 166 -5 15 -18
17 -100 17 -67 0 -96 -4 -99 -12z"/>
<path d="M3975 1528 c-5 -13 -85 -670 -85 -694 0 -11 36 -14 194 -14 l194 0 7
53 c3 28 8 64 11 80 l6 27 -107 0 -106 0 6 48 c10 73 9 72 69 72 62 0 61 -2
71 98 l7 62 -60 0 c-66 0 -61 -8 -47 83 l6 37 103 0 103 0 7 53 c3 28 6 64 6
80 l0 27 -190 0 c-144 0 -192 -3 -195 -12z"/>
<path d="M2875 698 c-19 -143 -75 -624 -75 -649 l0 -30 88 3 87 3 13 95 c23
174 17 160 65 160 71 0 119 19 162 64 88 91 101 258 26 340 -43 48 -77 56
-225 56 l-135 0 -6 -42z m210 -132 c42 -30 12 -136 -38 -136 -18 0 -19 5 -12
68 9 89 14 95 50 68z"/>
<path d="M3355 728 c-5 -13 -85 -670 -85 -694 0 -18 165 -20 176 -3 9 15 92
698 85 704 -2 3 -42 5 -88 5 -58 0 -85 -4 -88 -12z"/>
<path d="M3587 733 c-3 -5 15 -87 40 -183 l46 -175 -87 -170 c-48 -94 -87
-174 -86 -178 0 -4 39 -6 87 -5 98 3 89 -3 137 108 l23 54 14 -79 14 -80 79
-3 c44 -2 85 -1 92 2 9 3 1 49 -33 180 l-46 175 87 169 c47 94 86 175 86 181
0 7 -31 11 -89 11 l-89 0 -33 -82 c-18 -45 -34 -78 -36 -72 -2 5 -9 41 -16 79
l-12 70 -87 3 c-47 1 -89 -1 -91 -5z"/>
<path d="M4085 718 c-10 -49 -83 -683 -78 -690 2 -5 89 -8 193 -8 214 0 194
-10 205 98 l7 62 -101 0 -101 0 0 44 c0 71 5 76 70 76 l57 0 7 53 c13 109 13
107 -49 107 -61 0 -62 2 -49 83 l7 37 102 0 103 0 6 40 c3 22 9 58 12 80 l6
40 -196 0 c-195 0 -196 0 -201 -22z"/>
<path d="M4526 731 c-6 -9 -86 -655 -86 -691 0 -19 5 -20 194 -20 l194 0 6 28
c3 15 8 51 11 79 l7 53 -106 0 c-78 0 -106 3 -106 13 0 6 14 120 30 252 16
132 30 252 30 268 l0 27 -84 0 c-47 0 -87 -4 -90 -9z"/>
<path d="M830 375 l0 -355 29 0 c21 0 30 6 35 23 8 29 8 635 0 665 -5 16 -14
22 -35 22 l-29 0 0 -355z"/>
<path d="M1120 375 l0 -355 553 2 552 3 0 350 0 350 -552 3 -553 2 0 -355z"/>
<path d="M2300 376 c0 -375 -14 -339 116 -306 211 54 337 165 338 299 1 128
-104 235 -289 296 -38 12 -91 26 -117 30 l-48 6 0 -325z"/>
<path d="M122 606 c-7 -35 -12 -71 -12 -80 0 -14 29 -16 295 -16 l295 0 0 80
0 80 -283 0 -284 0 -11 -64z"/>
<path d="M972 373 l3 -268 33 -3 32 -3 0 270 0 271 -35 0 -35 0 2 -267z"/>
<path d="M81 383 c-20 -103 -54 -93 304 -93 l315 0 0 75 0 75 -304 0 -303 0
-12 -57z"/>
<path d="M41 163 c-20 -103 -57 -93 324 -93 l335 0 0 75 0 75 -324 0 -323 0
-12 -57z"/>
</g>
</svg>
